#!OML:ASF H:\Terrain\Patient Classification 1\Takeo\Monday\TakeoMonday.ASF
:FULLY-SPECIFIED
:DEGREES
559
root 8.94351 16.745 -0.580796 4.59859 21.9228 -2.42428
lowerback 26.1564 -1.6023 8.73245
upperback 9.85232 0.145599 -1.4829
thorax -3.42851 0.356444 -6.69481
lowerneck -12.4862 -9.01299 -4.83024
upperneck -19.3842 -11.048 5.0395
head -3.75197 -5.27791 2.38709
rclavicle 3.25261e-014 -6.5748e-014
rhumerus 62.9275 -11.0214 -33.1312
rradius 43.5556
rwrist -3.70796
rhand -40.8284 44.0172
rfingers 7.12502
rthumb -13.7663 14.4927
lclavicle 3.25261e-014 -6.5748e-014
lhumerus -28.3855 1.53727 86.6707
lradius 55.863
lwrist 30.7418
lhand -31.0396 7.75141
lfingers 7.12502
lthumb -4.32137 37.6873
rfemur -35.3007 -6.97451 20.4624
rtibia 49.744
rfoot -17.7042 -15.8989
rtoes 4.78523
lfemur -28.6406 2.75917 -19.2492
ltibia 53.7022
lfoot -23.8197 11.9957
ltoes -11.291
560
root 8.94136 16.7854 -0.547672 4.41265 22.0748 -2.71264
lowerback 25.6479 -1.59487 8.68136
upperback 9.68399 0.0990244 -1.44284
thorax -3.38292 0.324768 -6.60006
lowerneck -12.6387 -9.00224 -4.60801
upperneck -19.3867 -11.0557 4.90913
head -3.74724 -5.28894 2.30003
rclavicle -4.03645e-014 -2.85365e-015
rhumerus 63.1262 -11.2297 -32.7957
rradius 43.4856
rwrist -4.10206
rhand -40.7159 43.538
rfingers 7.12502
rthumb -13.6579 14.0061
lclavicle -4.03645e-014 -2.85365e-015
lhumerus -28.3708 1.77136 86.6366
lradius 55.5024
lwrist 30.8194
lhand -30.7953 8.88507
lfingers 7.12502
lthumb -4.08552 38.8256
rfemur -34.6568 -6.8584 20.7494
rtibia 48.936
rfoot -17.5584 -16.1461
rtoes 5.74185
lfemur -28.1723 2.64023 -18.8767
ltibia 53.0325
lfoot -23.5015 11.9966
ltoes -10.9327
561
root 8.93987 16.827 -0.51145 4.29162 22.0817 -2.70109
lowerback 25.2197 -1.49055 8.3559
upperback 9.49198 0.114745 -1.49595
thorax -3.39572 0.316597 -6.46969
lowerneck -12.6433 -9.0457 -4.71988
upperneck -19.3965 -11.0638 5.19492
head -3.72512 -5.29263 2.41176
rclavicle 8.72168e-015 -2.42517e-014
rhumerus 63.3896 -11.4813 -33.1087
rradius 43.1011
rwrist -3.79648
rhand -40.8738 43.2805
rfingers 7.12502
rthumb -13.81 13.7589
lclavicle 8.72168e-015 -2.42517e-014
lhumerus -28.4825 1.90973 86.5765
lradius 55.1873
lwrist 30.756
lhand -30.751 9.44084
lfingers 7.12502
lthumb -4.04268 39.3822
rfemur -33.9496 -6.69264 20.7329
rtibia 48.1086
rfoot -17.4886 -16.3451
rtoes 6.77151
lfemur -27.5181 2.59188 -18.8188
ltibia 52.2749
lfoot -23.2322 12.1182
ltoes -10.9911
562
root 8.93951 16.8663 -0.472935 4.00428 22.0743 -2.71576
lowerback 24.9228 -1.40007 8.09267
upperback 9.31553 0.139559 -1.58165
thorax -3.4496 0.314385 -6.41606
lowerneck -12.835 -9.10128 -4.84169
upperneck -19.1233 -11.0871 5.40415
head -3.57101 -5.30201 2.47429
rclavicle -3.97569e-016 7.15625e-015
rhumerus 63.5677 -11.7291 -33.263
rradius 42.68
rwrist -3.65953
rhand -41.1094 44.2102
rfingers 7.12502
rthumb -14.037 14.7042
lclavicle -3.97569e-016 7.15625e-015
lhumerus -28.702 2.02342 86.4497
lradius 54.9174
lwrist 30.4028
lhand -30.85 9.54829
lfingers 7.12502
lthumb -4.13826 39.4878
rfemur -33.033 -6.5658 20.7438
rtibia 47.2979
rfoot -17.408 -16.4187
rtoes 5.98124
lfemur -26.5808 2.58185 -18.7067
ltibia 51.4114
lfoot -23.1685 11.9891
ltoes -11.0263
563
root 8.94134 16.9189 -0.437029 3.4502 22.1639 -3.15213
lowerback 24.6588 -1.42411 8.24348
upperback 9.21615 0.12165 -1.57119
thorax -3.43062 0.303905 -6.48333
lowerneck -13.2912 -9.0763 -4.66918
upperneck -18.7251 -11.0572 5.25129
head -3.37041 -5.29121 2.35176
rclavicle -2.68359e-015 0
rhumerus 63.7833 -12.023 -33.3807
rradius 42.3522
rwrist -3.6859
rhand -41.1694 44.7488
rfingers 7.12502
rthumb -14.0949 15.2469
lclavicle -2.68359e-015 0
lhumerus -28.7504 2.1678 86.3444
lradius 54.6354
lwrist 30.1615
lhand -31.1107 9.32832
lfingers 7.12502
lthumb -4.39006 39.2628
rfemur -31.9553 -6.4389 21.1448
rtibia 46.4539
rfoot -17.1684 -16.4946
rtoes 5.02047
lfemur -25.5208 2.49352 -18.1429
ltibia 50.4515
lfoot -23.16 11.6351
ltoes -9.97228
564
root 8.94397 16.9691 -0.404196 3.01531 22.154 -3.2564
lowerback 24.3944 -1.33577 8.07582
upperback 9.12478 0.174033 -1.5764
thorax -3.39819 0.323592 -6.40225
lowerneck -13.1494 -9.07707 -4.62479
upperneck -18.872 -11.0705 5.19628
head -3.45242 -5.29606 2.3412
rclavicle 1.81888e-014 -1.31198e-014
rhumerus 63.8639 -12.3327 -33.2867
rradius 42.156
rwrist -3.77071
rhand -41.0195 44.252
rfingers 7.12502
rthumb -13.9504 14.74
lclavicle 1.81888e-014 -1.31198e-014
lhumerus -28.7902 2.13621 86.4598
lradius 54.3697
lwrist 30.5776
lhand -31.4374 10.0742
lfingers 7.12502
lthumb -4.70549 40.0019
rfemur -30.9307 -6.22852 21.1833
rtibia 45.626
rfoot -17.1027 -16.5998
rtoes 4.802
lfemur -24.4201 2.43091 -17.9626
ltibia 49.4602
lfoot -22.9679 11.6064
ltoes -8.92634
565
root 8.94584 17.0093 -0.37151 2.78223 22.1888 -3.15256
lowerback 23.9756 -1.19801 7.75315
upperback 9.05131 0.243714 -1.57671
thorax -3.27085 0.353903 -6.22712
lowerneck -12.8965 -9.22122 -5.00358
upperneck -19.1173 -11.2061 5.45402
head -3.54101 -5.34349 2.50868
rclavicle -2.0773e-014 1.88845e-014
rhumerus 63.9694 -12.6991 -32.8439
rradius 41.9436
rwrist -3.98208
rhand -41.1148 44.1859
rfingers 7.12502
rthumb -14.0423 14.6803
lclavicle -2.0773e-014 1.88845e-014
lhumerus -28.8039 2.01827 86.7249
lradius 54.0881
lwrist 30.888
lhand -31.9189 11.1739
lfingers 7.12502
lthumb -5.1704 41.0908
rfemur -30.0504 -6.1538 21.0548
rtibia 44.7711
rfoot -16.9596 -16.6912
rtoes 4.45952
lfemur -23.4735 2.43605 -18.0101
ltibia 48.5012
lfoot -22.5354 11.6919
ltoes -9.36336
